<?xml version="1.0" encoding="utf-8"?>
<!-- Generator: Adobe Illustrator 21.1.0, SVG Export Plug-In . SVG Version: 6.00 Build 0)  -->
<svg version="1.1" id="Layer_1" xmlns="http://www.w3.org/2000/svg" xmlns:xlink="http://www.w3.org/1999/xlink" x="0px" y="0px"
	 viewBox="0 0 864 864" style="enable-background:new 0 0 864 864;" xml:space="preserve">
<style type="text/css">
	.st0{fill:#EE5328;}
	.st1{fill:#FFFFFF;}
</style>
<rect class="st0" width="864" height="864"/>
<path class="st1" d="M75.7,168.5"/>
<path class="st1" d="M220.9,598.3h90.4l0.6-1.3c-1.8-1.5-3.5-3-5.3-4.4c-28.8-22.2-50.2-52.6-61.3-87.2c-1.9-5.8-4.6-7.7-10.4-7.4
	c-10.4,1.3-16.2-2.5-16.8-14.1c-1.1-20.7-3.1-41.4-4.6-62.1c-0.5-6.8-1.1-13.7-1.3-20.5c-1-6.4,3.4-12.4,9.8-13.5
	c1-0.2,2.1-0.2,3.2-0.1c5.1-0.3,10.2-0.3,15.3,0c3.5,0.6,7-1.6,7.8-5.1c19.2-51,60.3-90.6,111.9-107.9c3.8-1.3,5.4-3.2,5-7.4
	c-0.1-1.3-0.1-2.6,0-4c0-9.4,3.8-13.2,13.3-13.3c19.3,0,38.5,0,57.8,0c8.6,0,17.3,0,25.9,0c8.6,0,14.2,4.3,13.6,13.8
	c-0.4,7.4,2.3,10.5,9.1,13.2c48.4,18,86.7,56.1,105.2,104.3c1.9,4.6,4,6.7,9.1,6.2c4.4-0.3,8.9-0.3,13.3,0c9.7,0.4,14.7,5,13.9,14.7
	c-1.3,21.2-2.9,42.4-4.4,63.5c-0.5,7.4-1,14.1-1.9,21.1c-0.2,6.4-5.6,11.4-12,11.2c-0.5,0-1-0.1-1.5-0.1c-10.7,0-10.7,0-14.7,10.4
	c-11.7,33.4-32.9,62.7-61,84.3c-1.5,1.2-2.9,2.5-6,5.1h93.4c-0.9,70.7-28,127.1-84,168.5C469,814.2,381,816.8,313,773.1
	C240.3,726.7,216.8,646.7,220.9,598.3z M517.8,462.2c0-52.5-42.6-95-95.1-94.9s-95,42.6-94.9,95.1c0,52.4,42.5,94.8,94.9,94.9
	C475.1,557,517.6,514.6,517.8,462.2L517.8,462.2z M320.3,604c28.6,34.3,64.3,54,110.3,50.3c39.9-3.2,77.4-32.2,87.3-51
	C452.1,640.9,386.3,640.8,320.3,604z M423.3,341c17.4-0.4,31.3-14.6,31.4-32.1c-0.2-17.6-14.6-31.7-32.1-31.5
	c-17.6,0.2-31.7,14.6-31.5,32.1C391.7,326.9,405.8,340.7,423.3,341L423.3,341z"/>
<path class="st1" d="M653.3,137.7c-25.6-1-45.5-22.6-44.5-48.2c1-24.2,20.3-43.6,44.5-44.5c25.4-0.3,46.3,20,46.6,45.4
	c0,0.2,0,0.3,0,0.5c0.7,25.1-19.1,46.1-44.2,46.8C654.9,137.7,654.1,137.7,653.3,137.7z"/>
<path class="st1" d="M628.6,181.1c0,18.7-15.1,33.8-33.8,33.8S561,199.8,561,181.1s15.1-33.8,33.8-33.8S628.6,162.5,628.6,181.1z"/>
<path class="st1" d="M646.3,272.8c10-0.5,18.5,7.1,19,17.1c0,0.5,0,1.1,0,1.6c0.5,9.8-6.9,18.1-16.7,18.7c-0.7,0-1.3,0-2,0
	c-10.3,0-18.7-8.4-18.7-18.7c0-10.3,8.4-18.7,18.7-18.7H646.3z"/>
<path class="st1" d="M455.8,385.5c7.4,5.4,15.4,10.7,22.8,16.3c1.3,1.5,1.9,3.4,1.7,5.4c0,36.5,0,73,0,109.5c0.1,2.1-0.6,4.3-2,5.9
	c-7.4,5.6-14.7,10.7-24,17.1c0-4.6-0.4-6.9-0.4-9.2c0-15.5,0-31,0-46.5c0-5.6-1.3-7.9-7.4-7.9c-16.2,0-32.3,0-48.5,0
	c-5.4,0-7.4,1.7-7.4,7.4c0,15.7,0,31.4,0,47.1c0,2.1,0,4.3,0,7.4c-9.4-3.5-18-9.1-24.9-16.3c-1.2-1.8-1.7-4-1.5-6.2
	c0-35.6,0-71.3,0-106.8c0.1-3,1.3-5.9,3.5-7.9c6.8-5.4,14.2-10,21.3-14.7l1.6,1.5c0,17.6,0,35.3,0,52.9c0,9.4,0,9.5,9.5,9.5h44.1
	c8.9,0,8.9,0,8.9-8.7c0-17.9,0-35.8,0-53.7L455.8,385.5z"/>
<path class="st1" d="M406.1,309.1c0-9.4,7.7-17,17.1-16.9c0,0,0,0,0,0c9.2,0.3,16.6,7.8,16.8,17c0.3,9.2-7,16.9-16.2,17.2
	c-0.2,0-0.5,0-0.7,0c-9,0.4-16.6-6.5-17-15.5C406,310.3,406,309.7,406.1,309.1z"/>
</svg>
